#!OML:ASF H:\Terrain\Patient Classification 1\Animal1\Tuesday\Animal1.ASF
:FULLY-SPECIFIED
:DEGREES
1173
root 6.93994 16.3619 1.75602 7.16676 14.0678 -365.223
lowerback -0.451753 1.84589 1.06846
upperback -11.2148 2.70778 0.61274
thorax -11.7312 1.28877 -0.2025
lowerneck 2.40954 8.32431 0.14845
upperneck 28.276 7.79562 19.1725
head 7.39667 5.61035 6.86446
rclavicle 1.12313e-014 2.34566e-014
rhumerus 8.03989 -32.5783 22.635
rradius 45.3162
rwrist 21.1527
rhand -46.9126 56.9186
rfingers 7.12502
rthumb -19.6233 27.889
lclavicle 1.12313e-014 2.34566e-014
lhumerus 18.0466 27.4937 -8.9618
lradius 43.0782
lwrist -50.7527
lhand -29.289 75.1647
lfingers 7.12502
lthumb -182.631 -285.128
rfemur -10.3287 -1.58212 17.3492
rtibia 40.8243
rfoot -11.9456 -34.3224
rtoes 49.2147
lfemur -32.2282 -2.66011 -14.4891
ltibia 38.2338
lfoot -16.083 5.96837
ltoes -14.398
1174
root 6.99607 16.3594 1.78161 7.18806 13.9348 -365.673
lowerback -0.627315 1.83501 1.50325
upperback -11.1652 2.71778 0.671426
thorax -11.5498 1.2565 -0.373712
lowerneck 1.8876 8.32686 0.0167935
upperneck 28.3845 7.69831 19.4861
head 7.51029 5.60057 7.03275
rclavicle -4.33351e-014 1.90833e-014
rhumerus 7.02125 -32.4989 21.7865
rradius 44.2595
rwrist 21.6387
rhand -47.8404 55.0557
rfingers 7.12502
rthumb -20.5151 26.1196
lclavicle -4.33351e-014 1.90833e-014
lhumerus 16.7692 26.4395 -9.1511
lradius 41.9877
lwrist -50.5663
lhand -29.0479 75.5122
lfingers 7.12502
lthumb -182.398 -285.479
rfemur -10.7938 -1.67995 17.6455
rtibia 41.3896
rfoot -13.1258 -33.7002
rtoes 46.947
lfemur -32.3161 -2.52032 -14.214
ltibia 38.4405
lfoot -16.2496 6.26084
ltoes -16.6588
1175
root 7.04973 16.3741 1.80668 7.21248 13.6948 -365.829
lowerback -0.67108 1.77034 1.57984
upperback -11.0666 2.632 0.713088
thorax -11.4082 1.21048 -0.359887
lowerneck 1.63804 8.44566 0.0471722
upperneck 28.2588 7.83574 19.5894
head 7.49349 5.67745 7.0687
rclavicle -4.09496e-014 8.74653e-015
rhumerus 5.50871 -31.521 21.3991
rradius 43.7323
rwrist 21.1735
rhand -49.8132 53.402
rfingers 7.12502
rthumb -22.4098 24.682
lclavicle -4.09496e-014 8.74653e-015
lhumerus 15.2354 25.8018 -9.15185
lradius 40.9629
lwrist -50.9953
lhand -29.0987 75.451
lfingers 7.12502
lthumb -182.447 -285.417
rfemur -11.2663 -1.91955 17.6686
rtibia 41.8892
rfoot -12.768 -33.611
rtoes 44.2242
lfemur -32.2463 -2.3362 -14.2352
ltibia 38.6105
lfoot -16.5194 6.02205
ltoes -15.0485
1176
root 7.09386 16.3684 1.83035 7.31281 13.3242 -365.618
lowerback -0.641827 1.7112 1.04641
upperback -11.005 2.52408 0.775453
thorax -11.3808 1.21237 0.0131743
lowerneck 1.63972 8.53233 0.130159
upperneck 27.9638 7.98592 19.5393
head 7.38535 5.7344 7.01336
rclavicle 1.70955e-014 -7.55382e-015
rhumerus 4.30121 -30.7546 20.8098
rradius 42.8435
rwrist 20.9311
rhand -50.1057 54.1326
rfingers 7.12502
rthumb -22.6906 25.4467
lclavicle 1.70955e-014 -7.55382e-015
lhumerus 13.3793 25.1585 -9.03463
lradius 40.2853
lwrist -51.7171
lhand -28.9909 75.3861
lfingers 7.12502
lthumb -182.343 -285.353
rfemur -11.8087 -2.03002 17.2593
rtibia 42.3675
rfoot -12.0304 -33.4159
rtoes 42.8188
lfemur -32.1799 -2.19101 -14.6265
ltibia 38.8042
lfoot -16.7298 6.0289
ltoes -13.9508
1177
root 7.13773 16.3559 1.85049 7.50773 13.0599 -365.642
lowerback -0.771601 1.65592 0.808213
upperback -10.9661 2.44163 0.890393
thorax -11.2726 1.20254 0.281359
lowerneck 1.53344 8.60166 0.113389
upperneck 27.7802 8.10309 19.4795
head 7.33192 5.77448 6.98696
rclavicle 2.54444e-014 2.3059e-014
rhumerus 3.21401 -30.3687 19.9717
rradius 41.7093
rwrist 20.7787
rhand -44.6457 54.8229
rfingers 7.12502
rthumb -17.4427 25.5854
lclavicle 2.54444e-014 2.3059e-014
lhumerus 11.3713 24.3702 -8.86767
lradius 39.915
lwrist -52.1305
lhand -28.86 75.3865
lfingers 7.12502
lthumb -182.216 -285.355
rfemur -12.4601 -2.11472 17.1021
rtibia 42.7971
rfoot -12.0021 -33.0424
rtoes 43.5633
lfemur -32.3098 -2.16733 -14.761
ltibia 38.9441
lfoot -16.7882 6.57534
ltoes -15.4257
